<svg viewBox="0 0 64 64" fill="none" xmlns="http://www.w3.org/2000/svg">
  <rect width="64" height="64" rx="16" fill="#F6F0E8"/>
  <path d="M12 53C26 50 40 51 55 54" stroke="#6F987B" stroke-width="4" stroke-linecap="round"/>
  <ellipse cx="28" cy="39" rx="15" ry="16" fill="#0B3F51"/>
  <path d="M21 27C25 20 33 18 39 22C45 26 43 35 37 42L31 48C31 39 27 31 21 27Z" fill="#FFFAF3"/>
  <path d="M30 20C34 15 41 15 45 19C49 23 49 29 45 33C41 36 35 34 31 29C29 26 28 22 30 20Z" fill="#0B3F51"/>
  <path d="M41 18C49 15 58 18 63 24C61 30 57 34 51 36L39 32C35 30 35 25 37 22L41 18Z" fill="#E47A2E"/>
  <path d="M41 29C47 31 54 31 60 28" stroke="#B94E25" stroke-width="2" stroke-linecap="round"/>
  <circle cx="41" cy="23" r="4" fill="#FFFAF3"/>
  <circle cx="42" cy="23" r="1.7" fill="#10242D"/>
  <path d="M22 52L25 48M31 52L33 48" stroke="#E47A2E" stroke-width="2.5" stroke-linecap="round"/>
</svg>
